<?xml version="1.0" encoding="UTF-8" standalone="no"?>
<!-- Created with Inkscape (http://www.inkscape.org/) -->
<svg
   xmlns:xml="http://www.w3.org/XML/1998/namespace"
   xmlns:dc="http://purl.org/dc/elements/1.1/"
   xmlns:cc="http://web.resource.org/cc/"
   xmlns:rdf="http://www.w3.org/1999/02/22-rdf-syntax-ns#"
   xmlns:svg="http://www.w3.org/2000/svg"
   xmlns="http://www.w3.org/2000/svg"
   xmlns:sodipodi="http://inkscape.sourceforge.net/DTD/sodipodi-0.dtd"
   xmlns:inkscape="http://www.inkscape.org/namespaces/inkscape"
   width="210mm"
   height="297mm"
   id="svg2"
   sodipodi:version="0.32"
   inkscape:version="0.41"
   sodipodi:docbase="/home/jgeorg"
   sodipodi:docname="authorg.svg">
  <defs
     id="defs3" />
  <sodipodi:namedview
     id="base"
     pagecolor="#ffffff"
     bordercolor="#666666"
     borderopacity="1.0"
     inkscape:pageopacity="0.0"
     inkscape:pageshadow="2"
     inkscape:zoom="0.35000000"
     inkscape:cx="177.71205"
     inkscape:cy="520.00000"
     inkscape:document-units="px"
     inkscape:current-layer="layer1"
     inkscape:window-width="934"
     inkscape:window-height="537"
     inkscape:window-x="0"
     inkscape:window-y="34" />
  <metadata
     id="metadata4">
    <rdf:RDF
       id="RDF5">
      <cc:Work
         rdf:about=""
         id="Work6">
        <dc:format
           id="format7">image/svg+xml</dc:format>
        <dc:type
           id="type9"
           rdf:resource="http://purl.org/dc/dcmitype/StillImage" />
      </cc:Work>
    </rdf:RDF>
  </metadata>
  <g
     inkscape:label="Layer 1"
     inkscape:groupmode="layer"
     id="layer1">
    <path
       style="fill:#b6b6b6;fill-opacity:1.0000000"
       d="M 437.08962,346.16200 C 416.41330,330.57832 400.13062,309.37026 386.87637,287.28389 C 379.91095,267.33844 406.27607,287.59353 410.17862,294.83468 C 423.97347,310.05789 437.09428,327.00915 455.38736,337.04333 C 481.28566,340.44972 444.23726,359.11254 437.08962,346.16200 z M 468.97401,332.56923 C 479.30567,298.06299 492.84195,264.41019 500.46413,229.16122 C 493.29208,209.31270 516.13113,197.72442 529.96254,188.58456 C 544.27838,175.13642 549.02845,199.46762 533.60770,201.11727 C 517.79793,210.11496 514.71342,231.93200 507.18210,247.43774 C 496.37170,275.96628 488.92371,306.39273 472.41296,332.30274 C 471.91597,333.59624 469.49417,333.95382 468.97401,332.56923 z M 128.25394,213.03629 C 116.14767,205.34699 132.49845,173.19749 134.39435,197.75647 C 132.48586,210.06317 162.53769,208.42044 145.27770,218.81568 C 139.08956,221.91314 132.08386,218.01332 128.25394,213.03629 z M 166.19850,212.33686 C 159.03744,199.16231 159.60794,172.59224 177.91755,170.02418 C 184.83265,183.71424 167.60002,207.04763 190.90435,213.18457 C 185.49284,223.52095 171.06226,223.17927 166.19850,212.33686 z M 352.10510,234.22532 C 347.77118,223.59873 363.06273,198.44872 341.40354,206.28623 C 322.55358,214.81624 310.32104,194.66155 310.86758,178.02891 C 306.37045,161.23651 295.88875,192.09778 294.46312,198.10157 C 294.73188,207.22354 280.69914,232.90974 278.17955,211.95506 C 275.35745,195.61110 265.77133,180.74393 265.43879,164.03387 C 273.31870,148.02679 304.78580,170.03703 302.93853,144.18215 C 308.90956,129.83107 310.27397,112.09016 321.46032,100.84608 C 329.52194,110.46031 314.37830,131.49126 312.41419,144.82086 C 307.25398,152.91622 310.21637,168.14297 316.51501,152.57873 C 323.68736,134.73388 329.58894,115.23114 341.78053,100.27430 C 337.50530,119.55566 324.26406,137.77920 326.79774,158.06277 C 329.59556,167.37579 314.84630,184.89729 328.69212,195.04001 C 338.57292,209.44478 366.17633,184.40148 366.33451,202.42297 C 363.40358,212.65975 371.48899,241.98793 355.30832,238.43361 L 353.45983,236.57417 L 352.10507,234.22532 L 352.10510,234.22532 z M 291.48469,186.58526 C 301.45446,175.57930 284.63354,166.03918 277.88490,173.79730 C 279.27399,180.42805 285.59018,207.59092 291.48469,186.58526 z M 199.32132,207.24044 C 195.10683,190.59620 217.85508,169.15090 217.50388,197.48916 C 226.09853,201.96797 234.31348,171.73259 240.00154,191.65664 C 250.05784,199.39767 254.48293,219.18539 235.87448,215.17531 C 227.92244,205.06092 220.11998,206.94899 209.96827,212.56702 C 205.93224,212.95997 200.56183,211.72282 199.32132,207.24044 z M 440.54045,234.15476 C 433.26416,229.78284 428.56181,218.24989 422.95136,214.75306 C 416.20494,223.25419 404.86208,232.68376 394.03593,224.81952 C 378.57821,212.45188 390.20193,189.21206 404.52226,181.33533 C 422.23409,176.30628 430.06735,200.58687 440.62876,210.99374 C 447.74606,217.04039 460.92274,240.47582 442.64022,235.70728 L 440.54047,234.15476 L 440.54045,234.15476 z M 412.30209,211.62480 C 416.45210,200.97987 395.80557,193.15032 404.11896,207.81084 C 404.79195,210.69779 411.10357,217.83729 412.30209,211.62480 z M 463.95759,216.22181 C 467.33785,201.86142 471.03259,182.03131 486.13261,176.03889 C 498.55626,184.18467 496.15460,202.30788 479.05690,199.97458 C 475.00523,201.04857 465.78989,225.91574 463.95759,216.22181 z M 350.79939,123.18707 C 358.94247,111.80478 338.01350,82.425314 359.34187,86.141144 C 361.14329,101.49633 359.97808,123.15927 349.07696,134.02969 C 348.31267,130.46624 350.28253,126.66967 350.79939,123.18707 z "
       id="path1358" />
    <text
       xml:space="preserve"
       style="font-size:144.03847;font-style:normal;font-weight:normal;fill:#000000;fill-opacity:1.0000000;stroke:none;stroke-width:1.0000000px;stroke-linecap:butt;stroke-linejoin:miter;stroke-opacity:1.0000000;font-family:Bitstream Vera Sans"
       x="66.355667"
       y="284.10904"
       id="text1361"><tspan
         sodipodi:role="line"
         id="tspan1363"
         x="66.355667"
         y="284.10904">authorg</tspan></text>
  </g>
</svg>
