/* XPM */
static char *empty[] = {
/* columns rows colors chars-per-pixel */
"64 48 222 2",
"   c #010101",
".  c #060A0A",
"X  c #080807",
"o  c #0A0B0B",
"O  c #0A0E10",
"+  c #06100F",
"@  c #0F100D",
"#  c #0B1413",
"$  c #0E1418",
"%  c #100D0E",
"&  c #120E10",
"*  c #12110C",
"=  c #1A1609",
"-  c #1F1B0B",
";  c #131213",
":  c #12151A",
">  c #171817",
",  c #111A1B",
"<  c #1A1717",
"1  c #181618",
"2  c #1B1A14",
"3  c #1B1B1B",
"4  c #1D1D21",
"5  c #1E2013",
"6  c #1E201A",
"7  c #142120",
"8  c #221D0C",
"9  c #231E14",
"0  c #211E1A",
"q  c #2E1D11",
"w  c #341903",
"e  c #3A1B05",
"r  c #211F23",
"t  c #26200E",
"y  c #2C250D",
"u  c #2F280E",
"i  c #262013",
"p  c #23231B",
"a  c #26281E",
"s  c #282211",
"d  c #29251D",
"f  c #28291E",
"g  c #30270E",
"h  c #31290E",
"j  c #322217",
"k  c #352D10",
"l  c #372F1E",
"z  c #3E2510",
"x  c #382F11",
"c  c #373011",
"v  c #383011",
"b  c #232323",
"n  c #272728",
"m  c #272824",
"M  c #272828",
"N  c #282727",
"B  c #2A2B21",
"V  c #2B2B2B",
"C  c #2F2F30",
"Z  c #2E3126",
"A  c #2F302F",
"S  c #2F3030",
"D  c #312E23",
"F  c #302F2F",
"G  c #333226",
"H  c #313528",
"J  c #393629",
"K  c #333333",
"L  c #373738",
"P  c #373837",
"I  c #373838",
"U  c #383737",
"Y  c #383738",
"T  c #383837",
"R  c #3B3B3B",
"E  c #3F403F",
"W  c #3F4040",
"Q  c #411D01",
"!  c #402009",
"~  c #462D18",
"^  c #47311C",
"/  c #48321E",
"(  c #403F3F",
")  c #403F40",
"_  c #40403F",
"`  c #574731",
"'  c #434343",
"]  c #474848",
"[  c #484747",
"{  c #484847",
"}  c #4B4B4B",
"|  c #4F4F50",
" . c #4F5050",
".. c #504F50",
"X. c #50504F",
"o. c #535353",
"O. c #575758",
"+. c #585757",
"@. c #585857",
"#. c #5B5B5B",
"$. c #5F5F60",
"%. c #5F605F",
"&. c #5F6060",
"*. c #605F5F",
"=. c #605F60",
"-. c #60605F",
";. c #636363",
":. c #676867",
">. c #666868",
",. c #686767",
"<. c #686768",
"1. c #686867",
"2. c #6B6B6B",
"3. c #6D6F70",
"4. c #6C706F",
"5. c #6C7172",
"6. c #706F70",
"7. c #70706D",
"8. c #737373",
"9. c #747C7B",
"0. c #787777",
"q. c #787778",
"w. c #7A7976",
"e. c #7B7B7B",
"r. c #767B80",
"t. c #7F7F80",
"y. c #73807F",
"u. c #7F807F",
"i. c #7F8080",
"p. c #837E6D",
"a. c #807C76",
"s. c #807F7F",
"d. c #8B846C",
"f. c #8F886C",
"g. c #878170",
"h. c #82827E",
"j. c #87897E",
"k. c #8B8572",
"l. c #8E8870",
"z. c #8B887E",
"x. c #948C6E",
"c. c #968D70",
"v. c #9D9477",
"b. c #838383",
"n. c #878788",
"m. c #888788",
"M. c #8A8C83",
"N. c #8B8B8B",
"B. c #8F8F90",
"V. c #8D9285",
"C. c #8F9090",
"Z. c #928E84",
"A. c #908F8F",
"S. c #908F90",
"D. c #949185",
"F. c #91938D",
"G. c #9E9B8E",
"H. c #939393",
"J. c #989797",
"K. c #989798",
"L. c #9B9B9B",
"P. c #BCAC96",
"I. c #A3A3A3",
"U. c #A7A8A7",
"Y. c #A8A7A8",
"T. c #A8A8A7",
"R. c #ABABAB",
"E. c #AFAFB0",
"W. c #ADB1B1",
"Q. c #B0B0AF",
"!. c #B3B3B3",
"~. c #B2B7B9",
"^. c #B3BABC",
"/. c #B8B7B8",
"(. c #B9B9B4",
"). c #BBBBBB",
"_. c #BCBEC0",
"`. c #B6C0BF",
"'. c #B6C0C0",
"]. c #BAC2C2",
"[. c #BAC8C6",
"{. c #C3C3BE",
"}. c #CBC5B4",
"|. c #CBC7BC",
" X c #D4CDB4",
".X c #D0C9BF",
"XX c #D6D0B4",
"oX c #DCD4B6",
"OX c #DED6B8",
"+X c #C3C3C3",
"@X c #C8C7C7",
"#X c #CCCCC5",
"$X c #CBCBCB",
"%X c #CED0C6",
"&X c #CFD0CF",
"*X c #CFD0D0",
"=X c #D3CFC7",
"-X c #D0CFCF",
";X c #D4D1C7",
":X c #D3D5CA",
">X c #D4D8CC",
",X c #DAD0C0",
"<X c #D9D5CA",
"1X c #DCD8CC",
"2X c #D2D2D2",
"3X c #D7D8D7",
"4X c #D7D8D8",
"5X c #DADADB",
"6X c #DFE0E0",
"7X c #E0DDD0",
"8X c #E0DFDF",
"9X c #F9E7D1",
"0X c #E3E3E3",
"qX c #EBEBEB",
"wX c #EFEFF0",
"eX c #EFF0EF",
"rX c #F0EFEF",
"tX c #F0EFF0",
"yX c #F3F3F3",
"uX c #F7F8F8",
"iX c #F8F7F8",
"pX c #F9F9F9",
/* pixels */
"$ , , 6 7 7 7 7 7 S K K S K K K K F V H C C V V V V N N b b b 3 3 3 3 1 > ; # o . o X X                       s s s s s t s s s ",
"# $ , , 7 6 7 7 7 I I I I I L L L K L K K C C C C V V M M N b b b b 3 3 1 > > ; & o o X X                     8 s t t t t y t i ",
"# # # y.`.[.[.y.7 E R R R R R R R R T R Y K L K K K C C V V V M b b b 6 3 3 < > ; & & o X X                   t p.}.}.}.k.t t 8 ",
"+ + # `.`.`.[.[.7 W W W ' W E R ( ( R R R R R L L L K K K A V V M M b b b 3 3 < > > ; o o X X X               t }.}.}.}.}.t t t ",
". + @ 5.`.`.`.y.6 ' ' ' ' ' ' ' ' ' _ ' W W R R R T R L K K K V V V V M N b 3 3 3 3 > & & o o X               8 p.}.}.}.p.8 t 8 ",
". o + @ # # , , 7 } } } } } } ] } ' ' ' ' ' ' ' _ R R R T L L K K F V V n N b b 4 3 > > ; & o o X X           8 8 8 8 8 8 8 t 8 ",
". o . + # # $ , , } }  .} } } } } } } } } ] ] ' ' ' ( _ R R R I L K F V V V N N b 3 3 3 1 > ; o o X           u u u g g u u h h ",
". . o . + @ # $ ,  .o.o.o. .o.o.o...} o.} } } } } ' ' ' ' ( R R T L K K K V V M N b 3 3 3 1 ; # o o o         u u g g u u u u u ",
". . . . o + + # $ O.@.@.@.@.o.@.o.o.o.o.o.X.| } } } } ] ' ' ' ' R R R L K H C V M n r r 3 3 1 ; ; % o X X     u g g g g g g g g ",
". . . 4.W.W.W.4.# #.#.#.#.#.#.@.#.#.@.@.@.o.o.o.o.} } } } ] ' ' ' R R T L K K C V V N b b 3 3 1 ; & o o X     u f. X X Xc.u g g ",
", + . W.W.W.W.W.# &.&.&.&.&.&.%.#.#.#.#.@.@.@.@.o.o.o.} } } } ] ' ' _ ( R R L K F V V N b p 4 3 1 ; ; % o     u  X XXXXXXXh g u ",
"$ : @ >.W.W.W.>.+ ;.;.;.;.;.;.;.*.;.;.*.;.#.#.#.@.O.o.o.o.o.} } } ' ' ' R R T L K K V V N N r 0 3 3 ; * o o X = 7.(.(.(.7.* * * ",
"O $ : O . . . . . 2.2.2.>.2.>.<.;.1.;.;.;.;.;.#.$.#.#.O.O.o.o.} } } [ ' ' ( R R T K K V V M b r 3 3 1 ; % o o % * * * * % * * * ",
". . $ : O . . X o 2.2.2.2.3.2.2.2.2.2.2.<.;.;.;.;.#.$.#.@.@.o.o...} } } ' ' ( R R L K H C V M b p 3 1 > ; o o 8 - 8 - - 8 8 8 = ",
"& o . $ : O o * 8 8.8.8.8.8.8.6.6.6.2.2.2.2.2.<.;.;.;.#.#.#.@.@.o.....} } ' ' ' R R L K C V V M b 4 3 3 > # % * o * * * @ * * % ",
"& & o . $ , h h h 8.8.0.8.q.8.8.8.8.8.8.6.6.2.2.2.>.<.;.;.;.#.#.@.+.o.X.} } } ' ' R R L K C V V M b 4 3 1 > * = = = = = = = = = ",
"; % & 6./._.XXf.h e.q.e.q.e.e.q.q.w.w.8.8.8.3.8.2.2.2.2.;.;.&.#.#.@.@.o. .} } } ' W R R L K K V N N b 3 3 > ; y d.}. X}.f.y t y ",
"; & & Q./.+XoXXXh b.b.u.u.u.u.e.u.e.e.q.q.w.8.8.8.8.2.2.2.;.;.;.$.#.#.@.o.o.} } ] ' ' R R L K V V N N b 3 3 > u XXXXXXXXXXu u u ",
"; % ; <./.{.XXx.h b.b.b.b.b.b.b.b.b.u.e.e.e.q.q.8.8.8.3.2.2.2.;.;.$.#.@.O.o...} } ] ' _ R P K K V V M b 4 3 3 h f.XXXXXXf.h u u ",
"; % % X : 9 g k k n.n.n.m.m.n.b.b.b.b.b.b.u.u.e.e.q.8.3.8.2.2.2.;.;.&.&.@.O.o.o.} } ] ' E R L L K V V N b 6 3 h h h h h h h h h ",
"& & & . : i h h k N.N.N.N.N.N.N.N.N.n.n.b.b.b.u.e.e.q.w.8.8.8.2.2.<.;.&.#.@.O.o. .} } ' ' R R R K A V V b 4 3 h u u u u h h u h ",
"& & & . 4 i k k c N.H.H.H.H.H.N.N.N.N.N.n.n.n.b.b.u.u.e.w.8.8.3.2.2.<.;.;.#.@.@.o. .} } ' ' R R L K C V M b 4 u u u u u u u u u ",
"& & & O : u h k k J.J.H.J.H.H.H.J.H.F.N.N.N.N.n.n.b.b.e.e.w.8.8.8.2.2.<.;.;.#.#.o.o.} } [ ' ' R P K H V V N 4 f B B f f f f f f ",
"& & o 5._.oXoXx.h K.L.L.K.L.K.J.K.J.J.H.H.H.N.N.n.n.b.b.t.e.w.w.8.3.2.2.:.;.;.#.@.o.o. .} ' ' R R P K C V n b f j..X%X%XV.B f f ",
"& 1 o ~.).oXoXoXh L.I.L.L.L.I.L.L.L.K.K.H.H.H.N.N.N.N.b.b.u.e.e.8.8.2.2.2.;.;.;.#.@.o.o.} } ' ' R Y L K V V N f :X%X%X%X%Xf a a ",
"& & O 3.{.oXoXx.h I.I.I.I.I.I.I.I.L.L.L.L.J.J.H.H.N.N.N.n.b.b.e.e.q.8.8.2.2.;.;.#.@.O.o.} } } ' ' R L K K V N b j.%X%X.Xj.p a a ",
"& & X $ 9 h h x k T.T.T.T.Y.I.Y.I.I.I.I.L.L.K.J.J.N.H.N.N.n.b.u.e.q.w.8.8.2.>.;.;.#.@.o.o.} } ' ' R Y L F V M B 6 f a f 8 8 a 6 ",
"& & . : i x x x k R.R.R.R.R.R.Y.U.U.I.I.I.I.L.L.K.J.H.H.N.n.n.b.b.e.q.8.8.2.2.<.;.;.#.O.o.| } [ ' R R Y K H V p f 6 5 g Q z t 6 ",
"& O O $ i k x h c !.!.!.Q.W.Q.Q.R.R.R.T.I.I.I.I.L.L.J.H.N.N.N.n.b.e.q.w.8.8.2.2.;.;.#.#.o.o.} } [ ' R Y K H C B p p q e e e w p ",
": & O $ s k h x k !.!.!.!.!.!.!.!.W.R.R.R.T.I.I.I.L.K.J.H.H.C.N.b.b.b.e.8.8.2.2.>.;.;.@.@.o.} } } ' R R L K V d 6 p j / / ~ z 2 ",
"$ : , r.oXoXoXx.k ).)././.(./.(.!.~.!.!.!.R.T.Y.I.I.L.L.K.H.N.N.n.m.b.e.q.8.8.2.2.;.;.#.#.O.o.} } ' ' R L K A D j.{..X9XP.` l 5 ",
". O $ _.OXoXoXoXx ).).+X_._._.).)./.!.!.!.R.R.T.I.I.L.L.L.J.H.N.N.m.b.b.e.0.8.8.2.2.;.&.#.O.o.} } } ' R R K K J >X{.+X|.oXd 5 6 ",
". o o g.oXoXoXx.c ).+X+X+X{.+X_._.).)./.!.!.E.R.R.Y.I.I.L.K.J.N.N.N.n.b.e.e.8.8.4.1.<.*.#.#.o.o.} } ' _ R T K J Z..X{.|.w.0 p 0 ",
"3 i c k x x v x c @X@X@X@X@X+X+X{.+X`.).).!.!.!.R.T.I.I.L.L.K.H.F.N.n.b.b.q.q.8.6.2.1.;.*.#.@.o.} } ' ' ( T K J G d D D G D D D ",
"4 7 k k v k k v c $X$X$X@X$X$X@X@X+X+X).).)./.!.E.R.T.U.I.L.L.J.H.N.n.b.b.u.e.8.6.2.2.;.*.#.@.o.} } ' ' R Y T G G d J D D G D D ",
": 4 b k v v v v k 2X2X$X2X&X$X$X@X@X+X+X+X)././.!.E.T.T.I.I.L.K.H.H.N.n.b.e.e.w.8.4.2.:.;.#.@.o.o.} } ' ( R U J D p G G J J J D ",
"o O : 1 v v x v c 2X2X2X2X2X2X2X$X$X@X@X+X).).).!.!.R.R.I.I.L.L.J.H.N.n.b.b.e.w.8.6.2.;.;.$.#.@.o.} } ' W R T J l d G J J J J D ",
"O . % r.OXoXoXx.v 3X4X5X4X5X3X2X2X2X$X@X+X+X].)./.!.!.R.T.I.I.L.J.H.H.N.n.b.t.q.8.8.2.2.;.&.#.@.o.} } ' ' R T G z.=X1X7XG.J J D ",
"# O X _.OXOXOXoXv 8X8X5X5X5X5X4X2X2X2X$X@X@X+X).).!.!.R.T.Y.I.L.K.H.H.N.n.b.t.e.q.8.2.2.;.;.#.@.o.} } ] ' R R B #X;X1X<X<XD G f ",
"# O o a.OXOXOXc.v 6X0X0X6X8X8X5X5X2X2X2X$X@X+X+X)./.!.!.R.I.I.I.L.J.H.N.N.b.t.e.q.8.3.2.;.;.#.#.o.o.} ] ' R R p z.=X<X1XZ.G D d ",
"# + O 0 x x x x v 0XqX0X0X0X0X8X5X5X4X2X$X@X@X+X_.).(.!.R.Y.I.L.L.K.H.N.N.n.u.e.q.8.4.2.;.;.#.@.o.X.} ] ' R P 2 9 0 0 9 0 0 0 p ",
"# + & s x x x x v qXqXqXqXqX0X6X6X5X4X2X2X$X@X+X`.).(.E.Q.R.I.I.L.K.H.H.N.n.b.e.e.w.8.2.:.;.;.@.@.X. .] ' E R 2 2 2 2 2 2 2 2 2 ",
"# + $ s v v v v v qXeXeXqXqXqX0X0X5X5X4X*X*X@X@X+X)./.!.Q.T.Y.I.L.K.H.H.N.n.b.u.q.0.4.2.2.;.=.#.@.o.} } ' ' R 2 2 2 2 1 2 2 2 2 ",
"# + $ k v v v v x yXyXuXyXeXqXqX0X6X5X5X2X*X@X@X+X).).!.E.R.Y.I.L.L.K.N.N.n.b.e.e.8.8.2.;.;.;.#.o.o.} } ' E R B B B B Z Z G G G ",
": . < v.OXOXOXv.v uXuXiXyXyXqXqX0X0X5X4X2X*X@X@X+X).)./.!.R.T.I.I.L.J.N.N.n.b.u.e.8.8.2.2.;.*.@.@.o.} } ] E R f j.>X>X>XF.H H H ",
": X 0 OXOXOXOXOXv iXpXpXiXyXyXqXqX0X6X5X2X2X*X@X@X)./.!.!.R.T.I.L.L.J.H.N.n.b.b.e.q.8.2.2.;.;.#.o.o.} } ] W R Z >X%X>X>X>XZ H H ",
": o i c.OXOXOXx.v iXpXpXiXyXqXqX0X6X5X5X2X*X@X@X+X).).!.!.T.T.I.L.L.K.H.N.n.b.e.e.8.8.2.2.;.*.#.o.o. .} ] W R 5 j.>X>X>XV.H H H ",
"4 : s v v v v v x iXpXiXyXyXqXqXqX6X5X4X2X2X$X@X+X)./.!.!.R.T.I.L.L.J.N.H.n.b.b.e.0.8.2.1.;.;.@.o.o.} } W E R 5 B Z Z Z Z H H H "
};
